{
  "accessors": [
    {
      "bufferView": 2,
      "componentType": 5126,
      "count": 6984,
      "max": [
        7.9020180702209473,
        7.8992729187011719,
        41.915859222412109
      ],
      "min": [
        -7.896522045135498,
        -7.8992719650268555,
        9.3681697845458984
      ],
      "type": "VEC3"
    },
    {
      "bufferView": 2,
      "byteOffset": 83808,
      "componentType": 5126,
      "count": 6984,
      "max": [
        1,
        1,
        1
      ],
      "min": [
        -1,
        -1,
        -1
      ],
      "type": "VEC3"
    },
    {
      "bufferView": 1,
      "componentType": 5126,
      "count": 6984,
      "max": [
        0.81610500812530518,
        0.99393099546432495
      ],
      "min": [
        0.0072510000318288803,
        0.57023698091506958
      ],
      "type": "VEC2"
    },
    {
      "bufferView": 0,
      "componentType": 5125,
      "count": 39840,
      "max": [
        6983
      ],
      "min": [
        0
      ],
      "type": "SCALAR"
    },
    {
      "bufferView": 2,
      "byteOffset": 167616,
      "componentType": 5126,
      "count": 9971,
      "max": [
        11.444100379943848,
        10.071220397949219,
        42.408988952636719
      ],
      "min": [
        -6.3259878158569336,
        -10.09451961517334,
        8.8776388168334961
      ],
      "type": "VEC3"
    },
    {
      "bufferView": 2,
      "byteOffset": 287268,
      "componentType": 5126,
      "count": 9971,
      "max": [
        1,
        1,
        1
      ],
      "min": [
        -1,
        -1,
        -1
      ],
      "type": "VEC3"
    },
    {
      "bufferView": 3,
      "componentType": 5126,
      "count": 9971,
      "max": [
        0.99974209070205688,
        0.99863803386688232,
        1,
        1
      ],
      "min": [
        -0.99974179267883301,
        -0.99711328744888306,
        -1,
        1
      ],
      "type": "VEC4"
    },
    {
      "bufferView": 1,
      "byteOffset": 55872,
      "componentType": 5126,
      "count": 9971,
      "max": [
        0.62655198574066162,
        0.15848200023174286
      ],
      "min": [
        0.0019529999699443579,
        0.0019529999699443579
      ],
      "type": "VEC2"
    },
    {
      "bufferView": 0,
      "byteOffset": 159360,
      "componentType": 5125,
      "count": 36432,
      "max": [
        9970
      ],
      "min": [
        0
      ],
      "type": "SCALAR"
    },
    {
      "bufferView": 2,
      "byteOffset": 406920,
      "componentType": 5126,
      "count": 9965,
      "max": [
        13.220290184020996,
        13.217550277709961,
        42.223140716552734
      ],
      "min": [
        -13.214790344238281,
        -13.21753978729248,
        6.2337870597839355
      ],
      "type": "VEC3"
    },
    {
      "bufferView": 2,
      "byteOffset": 526500,
      "componentType": 5126,
      "count": 9965,
      "max": [
        1,
        1,
        1
      ],
      "min": [
        -1,
        -1,
        -1
      ],
      "type": "VEC3"
    },
    {
      "bufferView": 3,
      "byteOffset": 159536,
      "componentType": 5126,
      "count": 9965,
      "max": [
        1,
        1,
        0.99924927949905396,
        1
      ],
      "min": [
        -1,
        -1,
        -1,
        1
      ],
      "type": "VEC4"
    },
    {
      "bufferView": 1,
      "byteOffset": 135640,
      "componentType": 5126,
      "count": 9965,
      "max": [
        0.9531090259552002,
        0.99249798059463501
      ],
      "min": [
        0.0019529999699443579,
        0.0019529999699443579
      ],
      "type": "VEC2"
    },
    {
      "bufferView": 0,
      "byteOffset": 305088,
      "componentType": 5125,
      "count": 48384,
      "max": [
        9964
      ],
      "min": [
        0
      ],
      "type": "SCALAR"
    },
    {
      "bufferView": 2,
      "byteOffset": 646080,
      "componentType": 5126,
      "count": 9986,
      "max": [
        7.1644420623779297,
        7.1616978645324707,
        33.463161468505859
      ],
      "min": [
        -7.1589450836181641,
        -7.1616950035095215,
        9.787994384765625
      ],
      "type": "VEC3"
    },
    {
      "bufferView": 2,
      "byteOffset": 765912,
      "componentType": 5126,
      "count": 9986,
      "max": [
        1,
        1,
        1
      ],
      "min": [
        -1,
        -1,
        -1
      ],
      "type": "VEC3"
    },
    {
      "bufferView": 3,
      "byteOffset": 318976,
      "componentType": 5126,
      "count": 9986,
      "max": [
        1,
        1,
        0.99970930814743042,
        1
      ],
      "min": [
        -0.99999988079071045,
        -1,
        -0.99994033575057983,
        -1
      ],
      "type": "VEC4"
    },
    {
      "bufferView": 1,
      "byteOffset": 215360,
      "componentType": 5126,
      "count": 9986,
      "max": [
        0.98872697353363037,
        0.31115201115608215
      ],
      "min": [
        0.0019529999699443579,
        0.0019529999699443579
      ],
      "type": "VEC2"
    },
    {
      "bufferView": 0,
      "byteOffset": 498624,
      "componentType": 5125,
      "count": 45192,
      "max": [
        9985
      ],
      "min": [
        0
      ],
      "type": "SCALAR"
    },
    {
      "bufferView": 2,
      "byteOffset": 885744,
      "componentType": 5126,
      "count": 9340,
      "max": [
        13.220290184020996,
        13.217550277709961,
        45.103050231933594
      ],
      "min": [
        -13.214790344238281,
        -13.21753978729248,
        15.025405883789062
      ],
      "type": "VEC3"
    },
    {
      "bufferView": 2,
      "byteOffset": 997824,
      "componentType": 5126,
      "count": 9340,
      "max": [
        1,
        1,
        1
      ],
      "min": [
        -1,
        -1,
        -1
      ],
      "type": "VEC3"
    },
    {
      "bufferView": 3,
      "byteOffset": 478752,
      "componentType": 5126,
      "count": 9340,
      "max": [
        0.99974197149276733,
        0.99308657646179199,
        0.99970918893814087,
        1
      ],
      "min": [
        -0.99974286556243896,
        -0.99289232492446899,
        -1,
        1
      ],
      "type": "VEC4"
    },
    {
      "bufferView": 1,
      "byteOffset": 295248,
      "componentType": 5126,
      "count": 9340,
      "max": [
        0.98954898118972778,
        0.99193602800369263
      ],
      "min": [
        0.0019529999699443579,
        0.0019529999699443579
      ],
      "type": "VEC2"
    },
    {
      "bufferView": 0,
      "byteOffset": 679392,
      "componentType": 5125,
      "count": 37152,
      "max": [
        9339
      ],
      "min": [
        0
      ],
      "type": "SCALAR"
    }
  ],
  "asset": {
    "extras": {
      "author": "• Less • (https://sketchfab.com/lessart)",
      "license": "CC-BY-4.0 (http://creativecommons.org/licenses/by/4.0/)",
      "source": "https://sketchfab.com/3d-models/hourglass-a453e90d47b74260b5e5ccd5a965fe3e",
      "title": "Hourglass"
    },
    "generator": "Sketchfab-9.66.0",
    "version": "2.0"
  },
  "bufferViews": [
    {
      "buffer": 0,
      "byteLength": 828000,
      "byteOffset": 0,
      "name": "floatBufferViews",
      "target": 34963
    },
    {
      "buffer": 0,
      "byteLength": 369968,
      "byteOffset": 828000,
      "byteStride": 8,
      "name": "floatBufferViews",
      "target": 34962
    },
    {
      "buffer": 0,
      "byteLength": 1109904,
      "byteOffset": 1197968,
      "byteStride": 12,
      "name": "floatBufferViews",
      "target": 34962
    },
    {
      "buffer": 0,
      "byteLength": 628192,
      "byteOffset": 2307872,
      "byteStride": 16,
      "name": "floatBufferViews",
      "target": 34962
    }
  ],
  "buffers": [
    {
      "byteLength": 2936064,
      "uri": "scene.bin"
    }
  ],
  "images": [
    {
      "uri": "textures/aiStandardSurface1SG_baseColor.png"
    },
    {
      "uri": "textures/aiStandardSurface1SG_metallicRoughness.png"
    },
    {
      "uri": "textures/aiStandardSurface1SG_normal.png"
    }
  ],
  "materials": [
    {
      "doubleSided": true,
      "name": "aiStandardSurface1SG",
      "normalTexture": {
        "index": 2,
        "scale": 1,
        "texCoord": 0
      },
      "pbrMetallicRoughness": {
        "baseColorFactor": [
          1,
          1,
          1,
          1
        ],
        "baseColorTexture": {
          "index": 0,
          "texCoord": 0
        },
        "metallicFactor": 1,
        "metallicRoughnessTexture": {
          "index": 1,
          "texCoord": 0
        },
        "roughnessFactor": 1
      }
    },
    {
      "alphaMode": "BLEND",
      "doubleSided": true,
      "name": "aiStandardSurface2SG",
      "pbrMetallicRoughness": {
        "baseColorFactor": [
          0.14156349949531188,
          0.14156349949531188,
          0.14156349949531188,
          0.24493335684490875
        ],
        "metallicFactor": 1,
        "roughnessFactor": 0
      }
    }
  ],
  "meshes": [
    {
      "primitives": [
        {
          "attributes": {
            "NORMAL": 1,
            "POSITION": 0,
            "TEXCOORD_0": 2
          },
          "indices": 3,
          "material": 1,
          "mode": 4
        }
      ]
    },
    {
      "primitives": [
        {
          "attributes": {
            "NORMAL": 5,
            "POSITION": 4,
            "TANGENT": 6,
            "TEXCOORD_0": 7
          },
          "indices": 8,
          "material": 0,
          "mode": 4
        }
      ]
    },
    {
      "primitives": [
        {
          "attributes": {
            "NORMAL": 10,
            "POSITION": 9,
            "TANGENT": 11,
            "TEXCOORD_0": 12
          },
          "indices": 13,
          "material": 0,
          "mode": 4
        }
      ]
    },
    {
      "primitives": [
        {
          "attributes": {
            "NORMAL": 15,
            "POSITION": 14,
            "TANGENT": 16,
            "TEXCOORD_0": 17
          },
          "indices": 18,
          "material": 0,
          "mode": 4
        }
      ]
    },
    {
      "primitives": [
        {
          "attributes": {
            "NORMAL": 20,
            "POSITION": 19,
            "TANGENT": 21,
            "TEXCOORD_0": 22
          },
          "indices": 23,
          "material": 0,
          "mode": 4
        }
      ]
    }
  ],
  "nodes": [
    {
      "children": [
        1
      ],
      "name": "RootNode (gltf orientation matrix)",
      "rotation": [
        -0.70710678118654746,
        -0,
        -0,
        0.70710678118654757
      ]
    },
    {
      "children": [
        2
      ],
      "name": "RootNode (model correction matrix)"
    },
    {
      "children": [
        3,
        4,
        5,
        6,
        7
      ],
      "name": "Hourglass.obj.cleaner.materialmerger.gles"
    },
    {
      "mesh": 0,
      "name": ""
    },
    {
      "mesh": 1,
      "name": ""
    },
    {
      "mesh": 2,
      "name": ""
    },
    {
      "mesh": 3,
      "name": ""
    },
    {
      "mesh": 4,
      "name": ""
    }
  ],
  "samplers": [
    {
      "magFilter": 9729,
      "minFilter": 9987,
      "wrapS": 10497,
      "wrapT": 10497
    }
  ],
  "scene": 0,
  "scenes": [
    {
      "name": "OSG_Scene",
      "nodes": [
        0
      ]
    }
  ],
  "textures": [
    {
      "sampler": 0,
      "source": 0
    },
    {
      "sampler": 0,
      "source": 1
    },
    {
      "sampler": 0,
      "source": 2
    }
  ]
}

