<?xml version="1.0" encoding="utf-8"?>
<!-- Generator: Adobe Illustrator 24.0.0, SVG Export Plug-In . SVG Version: 6.00 Build 0)  -->
<svg version="1.1" id="Layer_1" xmlns="http://www.w3.org/2000/svg" xmlns:xlink="http://www.w3.org/1999/xlink" x="0px" y="0px"
	 viewBox="0 0 100 100" style="enable-background:new 0 0 100 100;" xml:space="preserve">
<style type="text/css">
	.st0{fill:#FFFFFF;}
</style>
<path class="st0" d="M71,23.3c-0.1-0.1-0.2-0.1-0.6-0.1c-0.4,0-0.5,0-0.9,0.1c-0.5,0.1-0.9,0.3-1.6,0.5c-1.3,0.5-2.3,0.6-3,0.5
	c-1.4-0.2-2.6-1.1-3.7-2.6c-0.1-0.2-0.6-1.1-1.2-2.2c-1-2-1.2-2.2-1.7-2.9c-1.3-1.8-2.7-2.8-4.8-3.4c-0.9-0.3-1.9-0.4-3-0.4h-0.9
	c-1.7,0.2-2.9,0.5-4.2,1.2c-0.9,0.5-1.6,1-2.2,1.7c-0.9,0.9-1.4,1.8-2.3,3.9c-1,2.3-1.4,3-2.2,3.8c-0.8,0.9-1.6,1.4-2.6,1.5
	c-0.7,0.1-1.7,0-3-0.4c-0.7-0.2-1.1-0.3-1.6-0.4C31.2,24,31,24,30.6,24c-0.4,0-0.5,0-0.6,0.1c-0.6,0.3-0.1,1.2,1.6,3.1
	c0.2,0.2,1.4,1.4,2.7,2.6c2.7,2.7,3.3,3.2,3.9,4c0.2,0.2,0.3,0.3,0.3,0.3s0.4-0.1,0.8-0.2c2.7-0.7,5.3-1.2,8.1-1.5L52.9,68l-0.2-1.4
	l0.9,5.8c0,0,2-0.5,2-0.6L50,36.3l0.1,0.1c7.6,5.8,11.3,10.3,12.6,14.9c0.2,0.8,0.5,2.7,0.6,3.9c0.2,3.2-0.2,6.7-1,9.8
	c-0.1,0.4-0.1,0.8-0.1,1c0,0.3,0.3,0.8,0.6,0.9c0.3,0.2,0.9,0.3,1.2,0.3s0.8-0.4,1-0.6c0.2-0.2,0.3-0.9,0.6-2.6
	c0.9-5.5,0.7-11-0.6-15c-0.8-2.3-2-4.6-3.8-7.1c-1.3-1.8-2.4-3.2-5.5-6.7c-0.9-1-1.7-2-2.4-2.8c3.1,0.1,6.2,0.5,9.3,1.1
	c0.2,0.1,0.4,0.1,0.4,0.1s0.1-0.2,0.3-0.3c0.6-0.8,1.1-1.3,3.8-4.2c2.1-2.2,2.8-3,3.3-3.7C71.3,24.2,71.5,23.5,71,23.3z M56.1,26.9
	c0.3-0.3,0.8-0.4,1.2-0.2c0.4,0.1,0.6,0.8,0.4,1.3c-0.1,0.2-0.3,0.4-0.5,0.5c0.1,0.2,0,0.5-0.1,0.7c-0.3,0.5-0.9,0.8-1.4,0.5
	c-0.4-0.2-0.7-0.6-0.6-1.1l-4.7-2.2l-4.7,2.3c0.1,0.5-0.2,0.9-0.6,1.1c-0.5,0.3-1.2,0-1.4-0.5c-0.1-0.2-0.1-0.5-0.1-0.7
	c-0.2-0.1-0.4-0.3-0.5-0.5c-0.3-0.5,0-1.2,0.5-1.4c0.4-0.2,0.9-0.1,1.2,0.2l3.3-1.6l-3.3-1.6c-0.3,0.3-0.8,0.4-1.2,0.2
	c-0.5-0.3-0.8-0.9-0.5-1.4c0.1-0.2,0.3-0.4,0.5-0.5c-0.1-0.2,0-0.5,0.1-0.7c0.3-0.5,0.9-0.8,1.4-0.5c0.4,0.2,0.7,0.7,0.6,1.1
	l4.7,2.3l4.7-2.3c-0.1-0.5,0.2-0.9,0.6-1.1c0.5-0.3,1.2,0,1.4,0.5c0.1,0.2,0.1,0.5,0.1,0.7c0.2,0.1,0.4,0.3,0.5,0.5
	c0.3,0.5,0,1.2-0.5,1.4c-0.4,0.2-0.9,0.1-1.2-0.2l-3.2,1.6L56.1,26.9z"/>
<rect x="47.6" y="69.2" transform="matrix(0.5912 -0.8065 0.8065 0.5912 -44.6667 71.8071)" class="st0" width="1.8" height="21.5"/>
<rect x="37.8" y="79" transform="matrix(0.5912 -0.8065 0.8065 0.5912 -44.6401 71.8018)" class="st0" width="21.5" height="1.8"/>
</svg>
