<?xml version="1.0" encoding="utf-8"?>
<!-- Generator: Adobe Illustrator 24.0.0, SVG Export Plug-In . SVG Version: 6.00 Build 0)  -->
<svg version="1.1" id="Layer_1" xmlns="http://www.w3.org/2000/svg" xmlns:xlink="http://www.w3.org/1999/xlink" x="0px" y="0px"
	 viewBox="0 0 100 100" style="enable-background:new 0 0 100 100;" xml:space="preserve">
<style type="text/css">
	.st0{fill:#FFFFFF;}
</style>
<path class="st0" d="M62.6,33.5c0.2,0.1,0.4,0.1,0.4,0.1c0,0,0.1-0.2,0.3-0.3c0.6-0.8,1.1-1.3,3.8-4.2c2.1-2.2,2.8-3,3.3-3.7
	c0.9-1.2,1.1-1.9,0.6-2.1c-0.1-0.1-0.2-0.1-0.6-0.1c-0.4,0-0.5,0-0.9,0.1c-0.5,0.1-0.9,0.3-1.6,0.5c-1.3,0.5-2.3,0.6-3,0.5
	c-1.4-0.2-2.6-1.1-3.7-2.6c-0.1-0.2-0.6-1.1-1.2-2.2c-1-2-1.2-2.2-1.7-2.9c-1.3-1.8-2.7-2.8-4.8-3.4c-0.9-0.3-1.9-0.4-3-0.4
	c-0.4,0-0.8,0-0.9,0c-1.7,0.2-2.9,0.5-4.2,1.2c-0.9,0.5-1.6,1-2.2,1.7c-0.9,0.9-1.4,1.8-2.3,3.9c-1,2.3-1.4,3-2.2,3.8
	c-0.8,0.9-1.6,1.4-2.6,1.5c-0.7,0.1-1.7,0-3-0.4c-0.7-0.2-1.1-0.3-1.6-0.4c-0.3-0.1-0.5-0.1-0.9-0.1c-0.4,0-0.5,0-0.6,0.1
	c-0.6,0.3-0.1,1.2,1.6,3.1c0.2,0.2,1.4,1.4,2.7,2.6c2.7,2.7,3.3,3.2,3.9,4c0.2,0.2,0.3,0.3,0.3,0.3s0.4-0.1,0.8-0.2
	c2.7-0.7,5.3-1.2,8.1-1.5L52.9,68c-0.9-0.5-2-0.8-3.3-0.9c-0.7,0-2.6,0.2-3.4,0.4c-2.7,0.8-5.3,2.3-7.4,4.6c-2.4,2.4-3.8,5.4-4,8.2
	c0,0.9,0.2,2.4,0.5,3c1,2.2,3,3.4,5.9,3.5c0.8,0,2.8-0.3,3.8-0.6c2.4-0.9,4.9-2.4,6.8-4.4c2.3-2.4,3.8-5.3,4-8.2
	c0-0.2,0-0.5-0.1-0.8l0,0c0,0,0-0.1,0-0.1c0-0.1,0-0.1,0-0.2l-0.1-0.6c0,0,0,0,0-0.1l-5.6-35.5l0.1,0.1c7.6,5.8,11.3,10.3,12.6,14.9
	c0.2,0.8,0.5,2.7,0.6,3.9c0.2,3.2-0.2,6.7-1,9.8c-0.1,0.4-0.1,0.8-0.1,1c0,0.3,0.3,0.8,0.6,0.9c0.3,0.2,0.9,0.3,1.2,0.3
	c0.3,0,0.8-0.4,1-0.6c0.2-0.2,0.3-0.9,0.6-2.6c0.9-5.5,0.7-11-0.6-15c-0.8-2.3-2-4.6-3.8-7.1c-1.3-1.8-2.4-3.2-5.5-6.7
	c-0.9-1-1.7-2-2.4-2.8C56.4,32.5,59.5,32.9,62.6,33.5z M57.7,28c-0.1,0.2-0.3,0.4-0.5,0.5c0.1,0.2,0,0.5-0.1,0.7
	c-0.3,0.5-0.9,0.8-1.4,0.5c-0.4-0.2-0.7-0.6-0.6-1.1l-4.7-2.2l-4.7,2.3c0.1,0.5-0.2,0.9-0.6,1.1c-0.5,0.3-1.2,0-1.4-0.5
	c-0.1-0.2-0.1-0.5-0.1-0.7c-0.2-0.1-0.4-0.3-0.5-0.5c-0.3-0.5,0-1.2,0.5-1.4c0.4-0.2,0.9-0.1,1.2,0.2l3.3-1.6l-3.3-1.6
	c-0.3,0.3-0.8,0.4-1.2,0.2c-0.5-0.3-0.8-0.9-0.5-1.4c0.1-0.2,0.3-0.4,0.5-0.5c-0.1-0.2,0-0.5,0.1-0.7c0.3-0.5,0.9-0.8,1.4-0.5
	c0.4,0.2,0.7,0.7,0.6,1.1l4.7,2.3l4.7-2.3c-0.1-0.5,0.2-0.9,0.6-1.1c0.5-0.3,1.2,0,1.4,0.5c0.1,0.2,0.1,0.5,0.1,0.7
	c0.2,0.1,0.4,0.3,0.5,0.5c0.3,0.5,0,1.2-0.5,1.4c-0.4,0.2-0.9,0.1-1.2-0.2l-3.2,1.6l3.3,1.6c0.3-0.3,0.8-0.4,1.2-0.2
	C57.7,26.8,57.9,27.5,57.7,28z"/>
</svg>
