<svg xmlns="http://www.w3.org/2000/svg" width="1197" height="729" viewBox="0 0 1197 729">
  <defs>
    <style>
      .cls-1 {
        fill: #e8deb7;
        stroke-width: 4px;
      }

      .cls-1, .cls-2 {
        stroke: #294555;
        fill-rule: evenodd;
      }

      .cls-2 {
        fill: none;
        stroke-width: 3.887px;
      }
    </style>
  </defs>
  <path class="cls-1" d="M55.7,22.476C144.265,71.2,577.212,68.143,612.273,74.681c4.058,14.76-3.15,10.267,13.364,13.03s19.685-10.937,19.685-10.937c44.237,9.766,134.126,3.183,134.126,3.183s-2.744,7.663,3.983,10.549,10.3-14.475,17.595-4.843,9.93,34.411,16.144,35.605-2.082-53.008,29.975-40.5C922.569,74.8,1035.68,69.4,1041.66,67S1014.39,6.68,1129.38.514c41.51-2.226,53.43,72.476,53.43,72.476l0.95,135.724s-16.81,383.382,13.32,429.877c-20.66,13.484-18.81,70.577-180.51,68.111-14.76-26.483-18.933-28.993-25.048-2.826-73.666,7.568-188.624,9.942-188.624,9.942s-22.733-22.184-26.778-20.375-2.423,24.638-12.609,26.1S744.178,721.5,710.036,705.4c-7.212,4.023-7.984,16.88-7.984,16.88s-55.762,4.951-63.664,4.055-33.889-17.071-30.071-2.255-524.8-27.157-529.085-46.7-10.4,8.641-10.4,8.641L10.709,660.173S-32.874-26.245,55.7,22.476Z"/>
  <path class="cls-2" d="M1046.2,44.166q7.665,21.355,15.33,42.715c11.88,38.537,15.14,78.861,18.84,118.7q2.25,108.8,4.5,217.626c1.86,77.368,6.56,151.835-6.01,227.073"/>
  <path class="cls-2" d="M1183.47,647.361c-0.01-6.323-8.53-8.462-36.27-10.912-34.64-3.059-78.2,3.143-64.59,18.2,38.19,42.259,108.03,6.007,61.39-7.62-37.61-10.988-39.57,18.5-13.01,18.908"/>
</svg>
